<svg width="129" height="133" viewBox="0 0 129 133" fill="none" xmlns="http://www.w3.org/2000/svg">
<path d="M108.552 114.655C116.104 114.655 118.621 105.483 123.655 105.483C126.427 105.483 128.69 103.419 128.69 100.897V96.3013C128.69 93.7743 126.439 91.7242 123.665 91.7242H123.655H5.33733C2.56333 91.7242 0.310303 93.7743 0.310303 96.3013V100.897C0.310303 103.419 2.57587 105.483 5.34475 105.483C11.5321 105.483 20.4484 109.693 20.4484 114.655V116.948C20.4484 119.235 22.9731 121.534 25.4828 121.534C28.0002 121.534 30.5173 119.241 30.5173 116.948V114.655C30.5173 107.996 35.5517 105.483 43.1035 105.483C55.6898 105.483 55.657 114.655 65.7586 114.655C75.8629 114.655 75.8301 105.483 88.4163 105.483C101 105.483 98.4502 114.655 108.552 114.655Z" fill="#EF9F99"/>
<path d="M113.588 71.0861C116.367 71.0861 118.622 69.0314 118.622 66.5V61.9138C118.622 59.3821 116.367 57.3276 113.588 57.3276H17.9324C15.1533 57.3276 12.8979 59.3824 12.8979 61.9138V66.5C12.8979 69.0317 15.1535 71.0861 17.9324 71.0861C26.9214 71.0861 25.819 80.2585 33.036 80.2585C40.253 80.2585 39.1503 71.0861 48.1393 71.0861C57.1283 71.0861 58.543 80.2585 65.76 80.2585C72.9771 80.2585 74.3917 71.0861 83.3807 71.0861C90.5978 71.0861 89.4951 80.2585 98.4843 80.2585C107.474 80.2585 106.371 71.0861 113.588 71.0861Z" fill="#EF9F99"/>
<path d="M83.3808 38.9826C86.16 38.9826 88.4153 36.9279 88.4153 34.3965V29.8103C88.4153 27.2786 86.1597 25.2241 83.3808 25.2241H48.1394C45.3603 25.2241 43.105 27.2789 43.105 29.8103V34.3965C43.105 36.9281 45.3606 38.9826 48.1394 38.9826C57.1284 38.9826 58.5431 48.155 65.7601 48.155C72.9772 48.155 74.3918 38.9826 83.3808 38.9826Z" fill="#EF9F99"/>
<path d="M53.3556 18.0444L62.7575 25.2241H68.7638L78.1631 18.0444C80.5268 16.2284 82.2788 13.8458 83.0265 11.165C83.5728 9.1952 83.3236 8.10133 83.3236 8.10133C82.8628 3.69647 79.1977 0 74.1054 0C70.327 0 66.9992 1.72433 65.5769 4.58617C64.1545 1.72433 61.1943 0 57.4134 0C52.3236 0 48.656 3.69647 48.1951 8.10159C48.1951 8.10159 47.9459 9.19546 48.4946 11.1629C49.24 13.8458 50.9945 16.226 53.3556 18.0444Z" fill="#FFDCD0"/>
<path d="M108.552 114.655C98.4501 114.655 101 105.483 88.4163 105.483C75.8301 105.483 75.8629 114.655 65.7586 114.655C55.6569 114.655 55.6897 105.483 43.1035 105.483C35.5517 105.483 30.5172 107.996 30.5172 114.655V116.948C30.5172 119.241 27.9999 121.534 25.4828 121.534C22.9731 121.534 20.4483 119.234 20.4483 116.948V114.655C20.4483 109.693 11.5323 105.483 5.34473 105.483V126.121C5.34473 129.92 8.72783 133 12.8965 133H116.104C120.275 133 123.655 129.92 123.655 126.121V105.483C118.621 105.483 116.104 114.655 108.552 114.655Z" fill="#FFDCD0"/>
<path d="M98.4841 80.2586C89.4951 80.2586 90.5975 71.0863 83.3805 71.0863C74.3915 71.0863 72.9768 80.2586 65.7598 80.2586C58.5427 80.2586 57.1281 71.0863 48.1391 71.0863C39.1501 71.0863 40.2525 80.2586 33.0357 80.2586C25.819 80.2586 26.9214 71.0863 17.9321 71.0863V91.7242H113.587V71.0863C106.371 71.086 107.473 80.2586 98.4841 80.2586Z" fill="#FFDCD0"/>
<path d="M83.3808 38.9825C74.3918 38.9825 72.9772 48.1549 65.7601 48.1549C58.5431 48.1549 57.1284 38.9825 48.1394 38.9825C47.2181 38.9825 46.3649 38.7417 45.6221 38.3474V57.3275H85.8979V38.3474C85.1554 38.7417 84.3022 38.9825 83.3808 38.9825Z" fill="#FFDCD0"/>
</svg>
